<svg xmlns="http://www.w3.org/2000/svg" version="1.1" xmlns:xlink="http://www.w3.org/1999/xlink" width="512" height="512" x="0" y="0" viewBox="0 0 512 512" style="enable-background:new 0 0 512 512" xml:space="preserve" class=""><g><path d="M256.001 486a5 5 0 0 1-5-5l-.004-50.004a5 5 0 1 1 10 0L261 481a5 5 0 0 1-4.999 5zm-69.531-11.011a5.001 5.001 0 0 1-4.756-6.546l15.449-47.559a4.995 4.995 0 0 1 6.3-3.21 5 5 0 0 1 3.21 6.3l-15.449 47.559a5 5 0 0 1-4.754 3.456zm139.057-.004a5.003 5.003 0 0 1-4.754-3.455l-15.457-47.555a5 5 0 1 1 9.51-3.092l15.457 47.555a5 5 0 0 1-4.756 6.547zm-201.788-31.954a4.999 4.999 0 0 1-4.042-7.938l29.391-40.461a5 5 0 0 1 6.984-1.106 4.999 4.999 0 0 1 1.107 6.983l-29.391 40.461a4.997 4.997 0 0 1-4.049 2.061zm264.515 0a4.993 4.993 0 0 1-4.049-2.062l-29.395-40.461a4.999 4.999 0 1 1 8.089-5.877l29.395 40.461a4.999 4.999 0 0 1-1.106 6.983 4.962 4.962 0 0 1-2.934.956zm49.77-49.781c-1.02 0-2.048-.31-2.935-.955l-40.457-29.391a4.999 4.999 0 1 1 5.877-8.089l40.457 29.391a4.999 4.999 0 0 1-2.942 9.044zm-364.051 0a5 5 0 0 1-2.944-9.045l40.449-29.395a4.999 4.999 0 1 1 5.879 8.089l-40.449 29.395a4.976 4.976 0 0 1-2.935.956zm396.013-62.718a4.992 4.992 0 0 1-1.546-.246l-47.559-15.453a5 5 0 0 1 3.09-9.51l47.559 15.453a5 5 0 0 1-1.544 9.756zm-427.975 0a5 5 0 0 1-1.545-9.756l47.551-15.461a5 5 0 0 1 3.092 9.51l-47.551 15.461a4.994 4.994 0 0 1-1.547.246zM481 261h-50.008a5 5 0 1 1 0-10H481a5 5 0 1 1 0 10zm-449.999 0c-2.762 0-5-2.238-5-5s2.238-5 5-5l50-.004c2.762 0 5 2.238 5 5s-2.238 5-5 5zm391.424-54.069a5 5 0 0 1-1.544-9.757l47.563-15.457a5 5 0 1 1 3.09 9.511l-47.563 15.457a4.988 4.988 0 0 1-1.546.246zm-332.861-.012c-.512 0-1.033-.08-1.546-.246l-47.551-15.449a5 5 0 0 1 3.09-9.51l47.551 15.449a5 5 0 0 1-1.544 9.756zm308.01-48.77a5 5 0 0 1-2.944-9.046l40.461-29.398a5.001 5.001 0 0 1 5.879 8.09l-40.461 29.398a4.974 4.974 0 0 1-2.935.956zm-283.156-.016a4.984 4.984 0 0 1-2.935-.955L71.03 127.791a5 5 0 0 1 5.877-8.091l40.453 29.387a5 5 0 0 1-2.942 9.046zm244.438-38.699a5 5 0 0 1-4.041-7.94l29.398-40.465a5 5 0 1 1 8.089 5.878l-29.398 40.465a4.99 4.99 0 0 1-4.048 2.062zm-205.711-.016a4.992 4.992 0 0 1-4.048-2.061l-29.398-40.449a5 5 0 1 1 8.089-5.879l29.398 40.449a5 5 0 0 1-4.041 7.94zm156.938-24.842a5 5 0 0 1-4.757-6.546l15.449-47.566a5 5 0 0 1 9.512 3.089l-15.449 47.566a5.003 5.003 0 0 1-4.755 3.457zm-108.162-.012a5.003 5.003 0 0 1-4.754-3.456l-15.453-47.551a5 5 0 0 1 9.511-3.091l15.453 47.551a5 5 0 0 1-4.757 6.547zM256 86a5 5 0 0 1-5-5V31a5 5 0 0 1 10 0v50a5 5 0 0 1-5 5z" fill="#e89a4f" opacity="1" data-original="#000000" class=""></path></g></svg>